<svg width="100" height="32" viewBox="0 0 100 32" fill="none" xmlns="http://www.w3.org/2000/svg">
<path d="M16 6C14.9 6 14 6.9 14 8V11.17L16 13.17L18 11.17V8C18 7.45 17.78 6.95 17.41 6.58C17.05 6.22 16.55 6 16 6Z" stroke="white" stroke-width="1.5" stroke-miterlimit="10" stroke-linecap="round" stroke-linejoin="round"/>
<path d="M14 20.8301V24.0001C14 25.1001 14.9 26.0001 16 26.0001C17.1 26.0001 18 25.1001 18 24.0001V20.8301L16 18.8301L14 20.8301Z" stroke="white" stroke-width="1.5" stroke-miterlimit="10" stroke-linecap="round" stroke-linejoin="round"/>
<path d="M11.17 14H8C6.9 14 6 14.9 6 16C6 17.1 6.9 18 8 18H11.17L13.17 16L11.17 14Z" stroke="white" stroke-width="1.5" stroke-miterlimit="10" stroke-linecap="round" stroke-linejoin="round"/>
<path d="M24.0001 14H20.8301L18.8301 16L20.8301 18H24.0001C24.5501 18 25.0501 17.78 25.4101 17.41C25.7801 17.05 26.0001 16.55 26.0001 16C26.0001 14.9 25.1001 14 24.0001 14Z" stroke="white" stroke-width="1.5" stroke-miterlimit="10" stroke-linecap="round" stroke-linejoin="round"/>
<path d="M23.07 20.24L18.83 16L16 18.83L20.24 23.07C21.02 23.85 22.29 23.85 23.07 23.07C23.85 22.29 23.85 21.02 23.07 20.24Z" stroke="white" stroke-width="1.5" stroke-miterlimit="10" stroke-linecap="round" stroke-linejoin="round"/>
<path d="M11.76 8.92984C11.37 8.53984 10.86 8.33984 10.34 8.33984C9.82997 8.33984 9.31997 8.53984 8.92997 8.92984C8.14997 9.70984 8.14997 10.9798 8.92997 11.7598L13.17 15.9998L16 13.1698L11.76 8.92984Z" stroke="white" stroke-width="1.5" stroke-miterlimit="10" stroke-linecap="round" stroke-linejoin="round"/>
<path d="M8.92997 23.0697C8.14997 22.2897 8.14997 21.0197 8.92997 20.2397L20.24 8.92973C21.02 8.14973 22.29 8.14973 23.07 8.92973C23.85 9.70973 23.85 10.9797 23.07 11.7597L11.76 23.0697C10.98 23.8497 9.70997 23.8497 8.92997 23.0697Z" stroke="white" stroke-width="1.5" stroke-miterlimit="10" stroke-linecap="round" stroke-linejoin="round"/>
<path d="M34.7678 26.6818C34.4226 26.6818 34.0987 26.6541 33.7962 26.5987C33.4979 26.5476 33.2507 26.4815 33.0547 26.4006L33.6683 24.3679C33.9879 24.4659 34.2756 24.5192 34.5312 24.5277C34.7912 24.5362 35.0149 24.4766 35.2024 24.3487C35.3942 24.2209 35.5497 24.0036 35.669 23.6967L35.8288 23.2812L32.3068 13.1818H35.1705L37.2031 20.392H37.3054L39.3572 13.1818H42.2401L38.424 24.0611C38.2408 24.5895 37.9915 25.0497 37.6761 25.4418C37.3651 25.8381 36.9709 26.1428 36.4936 26.3558C36.0163 26.5732 35.4411 26.6818 34.7678 26.6818ZM42.7335 23V13.1818H45.4565V23H42.7335ZM44.1014 11.9162C43.6966 11.9162 43.3493 11.782 43.0595 11.5135C42.774 11.2408 42.6313 10.9148 42.6313 10.5355C42.6313 10.1605 42.774 9.83878 43.0595 9.57031C43.3493 9.29758 43.6966 9.16122 44.1014 9.16122C44.5063 9.16122 44.8514 9.29758 45.1369 9.57031C45.4267 9.83878 45.5716 10.1605 45.5716 10.5355C45.5716 10.9148 45.4267 11.2408 45.1369 11.5135C44.8514 11.782 44.5063 11.9162 44.1014 11.9162ZM51.2123 23.1918C50.2023 23.1918 49.333 22.9872 48.6043 22.5781C47.8799 22.1648 47.3216 21.581 46.9296 20.8267C46.5375 20.0682 46.3415 19.1712 46.3415 18.1357C46.3415 17.1257 46.5375 16.2393 46.9296 15.4766C47.3216 14.7138 47.8735 14.1193 48.5851 13.6932C49.301 13.267 50.1405 13.054 51.1036 13.054C51.7513 13.054 52.3543 13.1584 52.9125 13.3672C53.475 13.5717 53.9651 13.8807 54.3827 14.294C54.8046 14.7074 55.1327 15.2273 55.3671 15.8537C55.6015 16.4759 55.7186 17.2045 55.7186 18.0398V18.7876H47.4282V17.1001H53.1554C53.1554 16.7081 53.0702 16.3608 52.8998 16.0582C52.7293 15.7557 52.4928 15.5192 52.1902 15.3487C51.8919 15.174 51.5446 15.0866 51.1483 15.0866C50.735 15.0866 50.3685 15.1825 50.0489 15.3743C49.7336 15.5618 49.4864 15.8153 49.3074 16.1349C49.1284 16.4503 49.0368 16.8018 49.0326 17.1896V18.794C49.0326 19.2798 49.1221 19.6996 49.301 20.0533C49.4843 20.407 49.7421 20.6797 50.0745 20.8714C50.4069 21.0632 50.801 21.1591 51.257 21.1591C51.5596 21.1591 51.8365 21.1165 52.088 21.0312C52.3394 20.946 52.5546 20.8182 52.7336 20.6477C52.9125 20.4773 53.0489 20.2685 53.1426 20.0213L55.6611 20.1875C55.5333 20.7926 55.2712 21.321 54.8749 21.7727C54.4828 22.2202 53.9757 22.5696 53.3536 22.821C52.7357 23.0682 52.0219 23.1918 51.2123 23.1918ZM59.3186 9.90909V23H56.5956V9.90909H59.3186ZM65.2917 23H60.6511V9.90909H65.33C66.6468 9.90909 67.7803 10.1712 68.7306 10.6953C69.6809 11.2152 70.4117 11.9631 70.9231 12.9389C71.4387 13.9148 71.6965 15.0824 71.6965 16.4418C71.6965 17.8054 71.4387 18.9773 70.9231 19.9574C70.4117 20.9375 69.6766 21.6896 68.7178 22.2138C67.7633 22.7379 66.6212 23 65.2917 23ZM63.4188 20.6286H65.1766C65.9948 20.6286 66.683 20.4837 67.2413 20.1939C67.8038 19.8999 68.2256 19.446 68.5069 18.8324C68.7924 18.2145 68.9352 17.4176 68.9352 16.4418C68.9352 15.4744 68.7924 14.6839 68.5069 14.0703C68.2256 13.4567 67.8059 13.005 67.2477 12.7152C66.6894 12.4254 66.0012 12.2805 65.183 12.2805H63.4188V20.6286ZM72.7956 23V13.1818H75.4355V14.8949H75.5378C75.7168 14.2855 76.0172 13.8253 76.4391 13.5142C76.861 13.1989 77.3468 13.0412 77.8965 13.0412C78.0328 13.0412 78.1799 13.0497 78.3375 13.0668C78.4952 13.0838 78.6337 13.1072 78.753 13.1371V15.5533C78.6252 15.5149 78.4483 15.4808 78.2225 15.451C77.9966 15.4212 77.79 15.4062 77.6025 15.4062C77.2019 15.4062 76.8439 15.4936 76.5286 15.6683C76.2175 15.8388 75.9703 16.0774 75.7871 16.3842C75.6081 16.6911 75.5186 17.0447 75.5186 17.4453V23H72.7956ZM79.2609 23V13.1818H81.9839V23H79.2609ZM80.6288 11.9162C80.2239 11.9162 79.8766 11.782 79.5869 11.5135C79.3013 11.2408 79.1586 10.9148 79.1586 10.5355C79.1586 10.1605 79.3013 9.83878 79.5869 9.57031C79.8766 9.29758 80.2239 9.16122 80.6288 9.16122C81.0336 9.16122 81.3788 9.29758 81.6643 9.57031C81.954 9.83878 82.0989 10.1605 82.0989 10.5355C82.0989 10.9148 81.954 11.2408 81.6643 11.5135C81.3788 11.782 81.0336 11.9162 80.6288 11.9162ZM88.545 13.1818V15.2273H82.4853V13.1818H88.545ZM83.8724 23V12.4723C83.8724 11.7607 84.0109 11.1705 84.2879 10.7017C84.5691 10.233 84.9527 9.88139 85.4385 9.64702C85.9243 9.41264 86.4761 9.29545 87.094 9.29545C87.5116 9.29545 87.893 9.32741 88.2382 9.39134C88.5876 9.45526 88.8476 9.51278 89.018 9.56392L88.5322 11.6094C88.4257 11.5753 88.2936 11.5433 88.1359 11.5135C87.9825 11.4837 87.8248 11.4688 87.6629 11.4688C87.2623 11.4688 86.9832 11.5625 86.8255 11.75C86.6679 11.9332 86.589 12.1911 86.589 12.5234V23H83.8724ZM94.5308 13.1818V15.2273H88.6182V13.1818H94.5308ZM89.9605 10.8295H92.6835V19.983C92.6835 20.2344 92.7219 20.4304 92.7986 20.571C92.8753 20.7074 92.9818 20.8033 93.1182 20.8587C93.2588 20.9141 93.4207 20.9418 93.604 20.9418C93.7318 20.9418 93.8597 20.9311 93.9875 20.9098C94.1153 20.8842 94.2134 20.8651 94.2815 20.8523L94.7098 22.8786C94.5734 22.9212 94.3817 22.9702 94.1345 23.0256C93.8874 23.0852 93.5869 23.1214 93.2332 23.1342C92.577 23.1598 92.0017 23.0724 91.5074 22.8722C91.0173 22.6719 90.6359 22.3608 90.3632 21.9389C90.0905 21.517 89.9562 20.9844 89.9605 20.3409V10.8295Z" fill="white"/>
</svg>
