<svg width="40" height="40" viewBox="0 0 40 40" fill="none" xmlns="http://www.w3.org/2000/svg">
<path d="M19.9142 22.9217C25.6173 22.9686 30.2501 18.3358 30.2032 12.6249C30.1564 7.16393 25.5392 2.54674 20.086 2.49986C14.3829 2.45299 9.75011 7.0858 9.79698 12.7967C9.84386 18.2577 14.461 22.8749 19.9142 22.9217ZM19.6251 6.97643C23.086 6.75768 25.9454 9.61705 25.7267 13.0858C25.547 15.9452 23.2345 18.2577 20.3751 18.4452C16.9142 18.6639 14.0548 15.8046 14.2735 12.3358C14.4532 9.47643 16.7657 7.16393 19.6251 6.97643Z" fill="white"/>
<path d="M20 24.0935C16.6563 24.0935 13.6406 22.6795 11.5235 20.4217C11.375 20.2654 11.1172 20.2888 11.0078 20.4763L5.08596 30.8435C4.84377 31.2732 5.14846 31.8045 5.64846 31.8045H11.9063C12.1328 31.8045 12.3438 31.9217 12.461 32.117L15.5078 37.1873C15.7735 37.6326 16.4297 37.5935 16.6485 37.1248L20.0078 29.7342L22.4531 24.3513C22.5625 24.117 22.3594 23.8592 22.1016 23.906C21.4141 24.0232 20.7188 24.0935 20 24.0935ZM28.4766 20.4138C27.336 21.6248 25.9453 22.6013 24.375 23.2342C24.2969 23.2654 24.2344 23.3201 24.2031 23.3982L20.711 31.031C20.6719 31.117 20.6719 31.2107 20.711 31.2967L23.3594 37.117C23.5703 37.5857 24.2344 37.6248 24.5 37.1795L27.5469 32.1092C27.6641 31.9138 27.875 31.7967 28.1016 31.7967H34.3594C34.8516 31.7967 35.1641 31.2654 34.9219 30.8357L29 20.4607C28.8828 20.2888 28.625 20.2576 28.4766 20.4138Z" fill="white"/>
</svg>
