<svg width="40" height="40" viewBox="0 0 40 40" fill="none" xmlns="http://www.w3.org/2000/svg">
<path d="M20 33.4375C15.9102 33.4375 11.2977 32.5305 7.66172 31.0156C6.32812 30.4539 5.18594 29.5453 4.25234 28.8281C4.20603 28.7927 4.15074 28.7709 4.09271 28.7653C4.03468 28.7597 3.97623 28.7704 3.92397 28.7962C3.87171 28.8221 3.82772 28.862 3.79697 28.9116C3.76623 28.9611 3.74996 29.0183 3.75 29.0766V30.0594C3.75 32.2523 5.58516 34.2172 8.91719 35.5922C11.8977 36.8227 15.8336 37.5 20 37.5C24.1664 37.5 28.1016 36.8227 31.0828 35.5922C34.4148 34.2187 36.25 32.2523 36.25 30.0594V29.0766C36.25 29.0183 36.2338 28.9611 36.203 28.9116C36.1723 28.862 36.1283 28.8221 36.076 28.7962C36.0238 28.7704 35.9653 28.7597 35.9073 28.7653C35.8493 28.7709 35.794 28.7927 35.7477 28.8281C34.8141 29.5445 33.6719 30.4539 32.3375 31.0156C28.7016 32.5305 24.0898 33.4375 20 33.4375ZM36.25 9.88359C36.1867 7.72344 34.3609 5.78984 31.0938 4.42656C28.1047 3.18438 24.1672 2.5 20 2.5C15.8328 2.5 11.8953 3.18438 8.91328 4.42656C5.64922 5.78672 3.82344 7.71641 3.75703 9.87109L3.75 11.25C3.75 11.7508 4.15625 12.5375 4.89297 13.182C5.7625 13.9422 7.05313 14.6922 8.62578 15.3484C11.9719 16.7469 16.2242 17.5781 20 17.5781C23.7758 17.5781 28.0281 16.7437 31.3742 15.3453C32.9469 14.6891 34.2375 13.9391 35.107 13.1789C35.8438 12.5383 36.25 11.7516 36.25 11.25V9.88359Z" fill="white"/>
<path d="M32.3375 17.6561C28.7024 19.1741 24.0899 20.078 20 20.078C15.9102 20.078 11.2977 19.1741 7.66174 17.6561C6.32814 17.0975 5.18596 16.1881 4.25236 15.4686C4.20584 15.433 4.15025 15.4112 4.09194 15.4057C4.03363 15.4002 3.97494 15.4111 3.92257 15.4374C3.8702 15.4636 3.82625 15.504 3.79574 15.554C3.76523 15.604 3.74939 15.6616 3.75002 15.7201V18.1248C3.75002 18.6256 4.15627 19.2561 4.89299 19.9006C5.76252 20.6616 7.05314 21.4108 8.6258 22.0678C11.9719 23.4639 16.2242 24.2967 20 24.2967C23.7758 24.2967 28.0281 23.4623 31.3742 22.0647C32.9469 21.4076 34.2375 20.6584 35.107 19.8975C35.8438 19.2553 36.25 18.6256 36.25 18.1248V15.7201C36.2501 15.6618 36.2338 15.6047 36.203 15.5552C36.1723 15.5056 36.1283 15.4657 36.0761 15.4398C36.0238 15.414 35.9653 15.4033 35.9073 15.4089C35.8493 15.4145 35.794 15.4363 35.7477 15.4717C34.8141 16.1881 33.6719 17.0975 32.3375 17.6561Z" fill="white"/>
<path d="M32.3375 24.3748C28.7016 25.8912 24.0898 26.7967 20 26.7967C15.9102 26.7967 11.2977 25.8912 7.66172 24.3748C6.32813 23.8147 5.18594 22.9053 4.25235 22.1873C4.20593 22.1518 4.15049 22.13 4.09232 22.1245C4.03415 22.1189 3.97558 22.1297 3.92327 22.1558C3.87095 22.1818 3.82698 22.222 3.79636 22.2718C3.76573 22.3215 3.74967 22.3789 3.75001 22.4373V24.7654C3.75001 25.2662 4.15625 25.8959 4.89219 26.5397C5.76172 27.3006 7.05313 28.0498 8.62579 28.7069C11.9719 30.103 16.2234 30.9373 20 30.9373C23.7766 30.9373 28.0281 30.1029 31.3742 28.7053C32.9469 28.0483 34.2375 27.299 35.107 26.5381C35.8438 25.8936 36.25 25.2631 36.25 24.7654V22.4373C36.25 22.379 36.2338 22.3219 36.203 22.2723C36.1723 22.2228 36.1283 22.1828 36.076 22.157C36.0238 22.1311 35.9653 22.1204 35.9073 22.1261C35.8493 22.1317 35.794 22.1535 35.7477 22.1889C34.8141 22.9053 33.6719 23.8147 32.3375 24.3748Z" fill="white"/>
</svg>
