<svg width="25" height="24" viewBox="0 0 25 24" fill="none" xmlns="http://www.w3.org/2000/svg">
<path d="M11.7132 12.9945V7.62719C11.7132 6.72764 12.4437 5.998 13.3443 5.998C14.245 5.998 14.9755 6.72764 14.9755 7.62719V12.9945V9.62619C14.9755 8.72664 15.706 7.997 16.6066 7.997C17.5072 7.997 18.2377 8.72664 18.2377 9.62619V12.9945H18.2477V11.5252C18.2477 10.6857 18.9782 9.996 19.8789 9.996C20.7695 9.996 21.5 10.6857 21.5 11.5252V16.5027C21.5 19.5512 18.8882 22 15.6359 22H14.255C12.874 22 11.6432 21.5402 10.6725 20.8506L3.98784 14.6737C3.33739 14.064 3.33739 13.0145 3.98784 12.4048C4.63829 11.7951 5.61897 11.925 6.26942 12.5347L8.45094 14.5137V3.52924C8.44093 2.68966 9.17144 2 10.0721 2C10.9727 2 11.7032 2.68966 11.7032 3.52924V12.9945" stroke="white" stroke-width="1.5" stroke-linecap="round" stroke-linejoin="round"/>
</svg>
