<svg width="25" height="25" viewBox="0 0 25 25" fill="none" xmlns="http://www.w3.org/2000/svg">
<path fill-rule="evenodd" clip-rule="evenodd" d="M20.5 20.5H4.5C3.4 20.5 2.5 19.6 2.5 18.5V6.5C2.5 5.4 3.4 4.5 4.5 4.5H20.5C21.6 4.5 22.5 5.4 22.5 6.5V18.5C22.5 19.6 21.6 20.5 20.5 20.5Z" stroke="white" stroke-width="1.5" stroke-miterlimit="10" stroke-linecap="round" stroke-linejoin="round"/>
<path d="M7.5 9.5C8.05228 9.5 8.5 9.05228 8.5 8.5C8.5 7.94772 8.05228 7.5 7.5 7.5C6.94772 7.5 6.5 7.94772 6.5 8.5C6.5 9.05228 6.94772 9.5 7.5 9.5Z" stroke="white" stroke-width="1.5" stroke-miterlimit="10" stroke-linecap="round" stroke-linejoin="round"/>
<path fill-rule="evenodd" clip-rule="evenodd" d="M22.5 15.5L17.5 9.5L11.5 17.5L6.5 13.5L2.5 16.5V18.5C2.5 19.6 3.4 20.5 4.5 20.5H20.5C21.6 20.5 22.5 19.6 22.5 18.5V15.5Z" stroke="white" stroke-width="1.5" stroke-miterlimit="10" stroke-linecap="round" stroke-linejoin="round"/>
</svg>
