<svg width="25" height="25" viewBox="0 0 25 25" fill="none" xmlns="http://www.w3.org/2000/svg">
<path d="M7.5 7.5C7.5 6.95 7.95 6.5 8.5 6.5H17.5V3.5C17.5 2.95 17.05 2.5 16.5 2.5H3.5C2.95 2.5 2.5 2.95 2.5 3.5V12.5C2.5 13.05 2.95 13.5 3.5 13.5H7.5V7.5Z" stroke="white" stroke-width="1.5" stroke-miterlimit="10" stroke-linecap="round" stroke-linejoin="round"/>
<path d="M7.5 7.5V16.5C7.5 17.05 7.95 17.5 8.5 17.5H18.5L22.5 21.5V7.5C22.5 6.95 22.05 6.5 21.5 6.5H8.5C7.95 6.5 7.5 6.95 7.5 7.5Z" stroke="white" stroke-width="1.5" stroke-miterlimit="10" stroke-linecap="round" stroke-linejoin="round"/>
<path d="M13.5 10.5H18.5" stroke="white" stroke-width="1.5" stroke-miterlimit="10" stroke-linecap="round" stroke-linejoin="round"/>
<path d="M11.5 13.5H18.5" stroke="white" stroke-width="1.5" stroke-miterlimit="10" stroke-linecap="round" stroke-linejoin="round"/>
</svg>
